<?xml version="1.0" encoding="utf-8"?>
<!-- Generator: Adobe Illustrator 23.1.1, SVG Export Plug-In . SVG Version: 6.00 Build 0)  -->
<svg version="1.1" id="Layer_1" xmlns="http://www.w3.org/2000/svg" xmlns:xlink="http://www.w3.org/1999/xlink" x="0px" y="0px"
	 viewBox="0 0 37.7 28.8" enable-background="new 0 0 37.7 28.8" xml:space="preserve">
<g>
	<g>
		<path fill="#597FC0" d="M37.3,18.2C37.2,18.1,33.1,7.1,33,7.1c-0.6-1.5-1.7-2.6-3.1-3.2c0,0-0.6-1.5-0.6-1.5
			C28.7,0.9,27.3,0,25.7,0c-1.8,0-3.4,1.2-3.8,2.9c0,0.1,0,0.2,0,0.3v5h-5.9v-5c0-0.1,0-0.2,0-0.3C15.4,1.2,13.8,0,12,0
			c-1.8,0-3.2,1.1-3.7,2.4L7.8,3.9C6.3,4.5,5.2,5.7,4.6,7.1C0.2,19,0.5,18.1,0.4,18.2C0.1,19.1,0,20,0,20.8c0,4.4,3.6,8,8,8
			c3.9,0,7.2-2.9,7.8-6.6h6.1c0.6,3.8,3.9,6.6,7.8,6.6c4.4,0,8-3.6,8-8C37.7,20,37.6,19.1,37.3,18.2z M31,7.9C31,7.9,31,7.9,31,7.9
			l2.2,5.7c-3.1-1.5-6.8-0.8-9.2,1.7V9.2c0-2,1.6-3.6,3.6-3.6C29.1,5.6,30.5,6.5,31,7.9z M21.8,16.9h-5.9v-6.5h5.9V16.9z M15.9,19.1
			h5.9V20h-5.9V19.1z M25.7,2.2c0.7,0,1.4,0.4,1.7,1.2c-1.3,0.1-2.4,0.5-3.4,1.3V3.4C24.3,2.7,24.9,2.2,25.7,2.2z M12,2.2
			c0.7,0,1.4,0.5,1.7,1.2v1.3c-0.9-0.7-2.1-1.2-3.4-1.3C10.6,2.6,11.3,2.2,12,2.2z M6.7,7.9c0.5-1.4,1.9-2.3,3.4-2.3
			c2,0,3.6,1.6,3.6,3.6v6.1c-2.4-2.5-6.1-3.1-9.2-1.7C7.8,5.2,6.3,9,6.7,7.9z M8,26.6c-3.2,0-5.7-2.6-5.7-5.7c0-3.2,2.7-5.7,5.7-5.7
			c3.2,0,5.7,2.6,5.7,5.7S11.1,26.6,8,26.6z M29.8,26.6c-3.2,0-5.7-2.6-5.7-5.7s2.6-5.7,5.7-5.7c3.1,0,5.7,2.5,5.7,5.7
			C35.5,24,32.9,26.6,29.8,26.6z"/>
	</g>
</g>
</svg>
