<?xml version="1.0" encoding="utf-8"?>
<!-- Generator: Adobe Illustrator 23.1.1, SVG Export Plug-In . SVG Version: 6.00 Build 0)  -->
<svg version="1.1" id="Layer_1" xmlns="http://www.w3.org/2000/svg" xmlns:xlink="http://www.w3.org/1999/xlink" x="0px" y="0px"
	 viewBox="0 0 41.8 42.2" enable-background="new 0 0 41.8 42.2" xml:space="preserve">
<path fill="#597FC0" d="M33.6,25.8c-0.3,0-0.5,0-0.8,0c0.5-1.3,0.8-2.8,0.8-4.3c0-7.1-5.8-12.9-12.9-12.9c-1.6,0-3,0.3-4.4,0.8
	c0.1-0.4,0.1-0.8,0.1-1.2c0-4.5-3.7-8.2-8.2-8.2C3.7,0,0,3.7,0,8.2c0,4.5,3.7,8.2,8.2,8.2c0.2,0,0.5,0,0.7,0
	c-0.7,1.6-1.1,3.3-1.1,5.1c0,7.1,5.8,12.9,12.9,12.9c1.7,0,3.3-0.3,4.7-0.9c0,0.2,0,0.3,0,0.5c0,4.5,3.7,8.2,8.2,8.2
	c4.5,0,8.2-3.7,8.2-8.2C41.8,29.4,38.2,25.8,33.6,25.8z M3,8.2C3,5.3,5.3,3,8.2,3c2.9,0,5.2,2.3,5.2,5.2c0,2.9-2.3,5.2-5.2,5.2
	C5.3,13.4,3,11.1,3,8.2z M20.7,31.4c-5.5,0-9.9-4.4-9.9-9.9c0-5.5,4.4-9.9,9.9-9.9s9.9,4.4,9.9,9.9c0,2.3-0.8,4.4-2.1,6
	c-0.6,0.5-1.1,1-1.6,1.6C25.3,30.5,23.1,31.4,20.7,31.4z M33.6,39.2c-2.9,0-5.2-2.3-5.2-5.2c0-1,0.3-2,0.8-2.8
	c0.5-0.5,1-0.9,1.4-1.5c0.8-0.6,1.8-0.9,2.9-0.9c2.9,0,5.2,2.3,5.2,5.2C38.8,36.8,36.5,39.2,33.6,39.2z"/>
</svg>
