<?xml version="1.0" encoding="utf-8"?>
<!-- Generator: Adobe Illustrator 23.1.1, SVG Export Plug-In . SVG Version: 6.00 Build 0)  -->
<svg version="1.1" id="Layer_1" xmlns="http://www.w3.org/2000/svg" xmlns:xlink="http://www.w3.org/1999/xlink" x="0px" y="0px"
	 viewBox="0 0 30.2 30.2" enable-background="new 0 0 30.2 30.2" xml:space="preserve">
<path fill="#8EA6B2" d="M0,0v30.2h30.2V0H0z M8.7,23.9c-1.4,0-2.6-1.1-2.6-2.6s1.1-2.6,2.6-2.6s2.6,1.1,2.6,2.6S10.2,23.9,8.7,23.9z
	 M17.7,23.9h-3.3c0-0.1,0-0.3,0-0.4c0-4.2-3.4-7.6-7.6-7.6c-0.2,0-0.4,0-0.6,0v-3.3c0.2,0,0.4,0,0.6,0c6,0,10.9,4.9,10.9,10.9
	C17.7,23.7,17.7,23.8,17.7,23.9z M24,23.9h-3.6c0-0.1,0-0.3,0-0.4c0-7.5-6.1-13.6-13.6-13.6c-0.2,0-0.4,0-0.6,0V6.3
	c0.2,0,0.4,0,0.6,0C16.3,6.3,24,14,24,23.5C24,23.7,24,23.8,24,23.9z"/>
</svg>
