<?xml version="1.0" encoding="utf-8"?>
<!-- Generator: Adobe Illustrator 23.1.1, SVG Export Plug-In . SVG Version: 6.00 Build 0)  -->
<svg version="1.1" id="Layer_1" xmlns="http://www.w3.org/2000/svg" xmlns:xlink="http://www.w3.org/1999/xlink" x="0px" y="0px"
	 viewBox="0 0 37.5 37.5" enable-background="new 0 0 37.5 37.5" xml:space="preserve">
<g>
	<path fill="#597FC0" d="M37,34.8l-9-9c2.2-2.7,3.6-6.2,3.6-10C31.6,7.1,24.5,0,15.8,0C7.1,0,0,7.1,0,15.8s7.1,15.8,15.8,15.8
		c3.8,0,7.3-1.3,10-3.6l9,9c0.6,0.6,1.6,0.6,2.2,0C37.7,36.4,37.7,35.4,37,34.8z M15.8,28.5c-7,0-12.7-5.7-12.7-12.7
		S8.8,3.1,15.8,3.1c7,0,12.7,5.7,12.7,12.7S22.8,28.5,15.8,28.5z"/>
</g>
</svg>
