<?xml version="1.0" encoding="utf-8"?>
<!-- Generator: Adobe Illustrator 23.1.1, SVG Export Plug-In . SVG Version: 6.00 Build 0)  -->
<svg version="1.1" id="Layer_1" xmlns="http://www.w3.org/2000/svg" xmlns:xlink="http://www.w3.org/1999/xlink" x="0px" y="0px"
	 viewBox="0 0 30.2 30.2" enable-background="new 0 0 30.2 30.2" xml:space="preserve">
<path fill-rule="evenodd" clip-rule="evenodd" fill="#8EA6B2" d="M0,0v30.2h30.2V0H0z M23.4,10.8c0,0.2,0,0.4,0,0.6
	c0,5.7-4.3,12.2-12.2,12.2c-2.4,0-4.7-0.7-6.6-1.9c0.3,0,0.7,0.1,1,0.1c2,0,3.9-0.7,5.3-1.8c-1.9,0-3.5-1.3-4-3
	C7.3,17,7.5,17,7.8,17c0.4,0,0.8-0.1,1.1-0.2c-2-0.4-3.4-2.1-3.4-4.2c0,0,0,0,0-0.1c0.6,0.3,1.2,0.5,1.9,0.5
	C6.3,12.4,5.5,11,5.5,9.6c0-0.8,0.2-1.5,0.6-2.2c2.1,2.6,5.3,4.3,8.8,4.5c-0.1-0.3-0.1-0.6-0.1-1c0-2.4,1.9-4.3,4.3-4.3
	c1.2,0,2.4,0.5,3.1,1.4c1-0.2,1.9-0.5,2.7-1c-0.3,1-1,1.8-1.9,2.4C24,9.2,24.8,9,25.6,8.6C25,9.5,24.3,10.2,23.4,10.8z"/>
</svg>
