<?xml version="1.0" encoding="utf-8"?>
<!-- Generator: Adobe Illustrator 23.1.1, SVG Export Plug-In . SVG Version: 6.00 Build 0)  -->
<svg version="1.1" id="Layer_1" xmlns="http://www.w3.org/2000/svg" xmlns:xlink="http://www.w3.org/1999/xlink" x="0px" y="0px"
	 viewBox="0 0 43.2 30.2" enable-background="new 0 0 43.2 30.2" xml:space="preserve">
<path fill="#8EA6B2" d="M42.3,4.7c-0.5-1.8-2-3.3-3.8-3.8C35.1,0,21.6,0,21.6,0S8.1,0,4.7,0.9c-1.8,0.5-3.3,2-3.8,3.8
	C0,8.1,0,15.1,0,15.1s0,7,0.9,10.4c0.5,1.8,2,3.3,3.8,3.8c3.4,0.9,16.9,0.9,16.9,0.9s13.5,0,16.9-0.9c1.8-0.5,3.3-2,3.8-3.8
	c0.9-3.4,0.9-10.4,0.9-10.4S43.2,8.1,42.3,4.7z M17.3,21.6V8.6l11.2,6.5L17.3,21.6z"/>
</svg>
