<?xml version="1.0" encoding="utf-8"?>
<!-- Generator: Adobe Illustrator 23.1.1, SVG Export Plug-In . SVG Version: 6.00 Build 0)  -->
<svg version="1.1" id="Layer_1" xmlns="http://www.w3.org/2000/svg" xmlns:xlink="http://www.w3.org/1999/xlink" x="0px" y="0px"
	 viewBox="0 0 294.4 58.7" enable-background="new 0 0 294.4 58.7" xml:space="preserve">
<g>
	<path fill="#757575" d="M177.3,30.9l4.1,10.8h-8L177.3,30.9z M175.8,27.3l-9,23.7h3.3l2.3-6.4h10l2.3,6.4h3.3l-9-23.7H175.8
		L175.8,27.3z M224.4,51h3.1V27.3h-3.1V51z M192.8,37.1c1-1.5,3.1-2.8,5.1-2.8c4.1,0,6.2,2.8,6.2,6.9v10H201v-9.5
		c0-3.3-1.8-4.6-4.1-4.6c-2.6,0-4.4,2.6-4.4,4.9v9h-3.1V34.5h3.1L192.8,37.1L192.8,37.1z M206.7,46.1c0-3.6,3.3-5.7,7.2-5.7
		c2.3,0,3.9,0.5,4.4,1v-0.5c0-2.6-2.1-3.9-4.1-3.9c-1.8,0-3.3,0.8-3.9,2.3l-2.8-1.3c0.5-1.5,2.6-3.9,6.7-3.9c3.9,0,7.2,2.3,7.2,6.9
		v10h-2.8v-2.3h-0.3c-0.8,1.3-2.6,2.8-5.4,2.8C209.5,51.5,206.7,49.4,206.7,46.1 M218.3,44c0,0-1.3-1-3.9-1c-3.1,0-4.4,1.8-4.4,3.1
		c0,1.8,1.8,2.6,3.3,2.6C215.7,48.6,218.3,46.6,218.3,44"/>
	<path fill-rule="evenodd" clip-rule="evenodd" fill="#757575" d="M231.9,58.2l3.6-8.5L229,34.8h3.1l4.9,11.3l4.9-11.3h3.1l-10,23.4
		L231.9,58.2L231.9,58.2z M277.2,40.2c-0.8-2.1-2.6-3.3-4.4-3.3c-2.6,0-4.9,2.3-4.9,5.7c0,3.3,2.3,5.7,4.9,5.7
		c1.8,0,3.6-1.3,4.4-3.1l2.6,1.5c-1.3,2.8-3.9,4.6-6.9,4.6c-4.4,0-8-3.9-8-8.7c0-5.1,3.6-8.7,8-8.7c3.1,0,5.7,1.8,6.9,4.6
		L277.2,40.2L277.2,40.2z"/>
	<path fill="#757575" d="M288.2,51.5c4.1,0,6.2-2.3,6.2-5.1c0-6.2-9-3.9-9-7.5c0-1.3,1-2.1,2.8-2.1s3.6,0.8,4.4,2.1l1.8-1.8
		c-1-1.3-3.9-3.1-6.4-3.1c-3.9,0-5.9,2.3-5.9,5.1c0,5.9,9.3,3.9,9.3,6.9c0,1.5-1,2.6-3.1,2.6s-3.1-1.3-4.1-2.6l-2.3,1.8
		C283.3,49.4,285.6,51.5,288.2,51.5L288.2,51.5z M258.9,51h3.1V34.5h-3.1V51L258.9,51z"/>
	<path fill-rule="evenodd" clip-rule="evenodd" fill="#757575" d="M260.2,26.5c1.3,0,2.1,1,2.1,2.1c0,1.3-1,2.1-2.1,2.1
		s-2.1-1-2.1-2.1S259.1,26.5,260.2,26.5z M255.8,48.4l0.5,2.3h-3.1c-2.8,0-4.1-2.1-4.1-5.1v-8H246v-3.1h3.1v-4.9h3.1v4.9h3.6v3.1
		h-3.6v8.5C252.2,48.4,254,48.4,255.8,48.4L255.8,48.4z"/>
	<path fill="#757575" d="M66.2,36.8v3.9h9c-0.3,2.1-1,3.6-2.1,4.6c-1.3,1.3-3.3,2.8-6.9,2.8c-5.4,0-9.8-4.4-9.8-10
		c0-5.4,4.4-10,9.8-10c3.1,0,5.1,1.3,6.7,2.6l2.6-2.6c-2.3-2.1-5.1-3.9-9.3-3.9c-7.5,0-13.9,6.2-13.9,13.6s6.4,13.6,13.9,13.6
		c4.1,0,7.2-1.3,9.5-3.9c2.6-2.6,3.3-5.9,3.3-8.7c0-0.8,0-1.8-0.3-2.3H66.2V36.8z M89.1,33.7c-4.9,0-8.7,3.6-8.7,8.7
		s3.9,8.7,8.7,8.7s8.7-3.9,8.7-8.7C97.8,37.3,94,33.7,89.1,33.7z M89.1,47.9c-2.6,0-4.9-2.3-4.9-5.4c0-3.1,2.3-5.4,4.9-5.4
		s4.9,2.1,4.9,5.4C94,45.8,91.7,47.9,89.1,47.9z M131.3,35.5c-1-1-2.6-2.1-4.9-2.1c-4.4,0-8.2,3.9-8.2,8.7s3.9,8.7,8.2,8.7
		c2.1,0,3.9-1,4.6-2.1h0.3V50c0,3.3-1.8,5.1-4.6,5.1c-2.3,0-3.9-1.8-4.4-3.1l-3.3,1.3c1,2.3,3.6,5.1,7.7,5.1c4.6,0,8.5-2.6,8.5-9.3
		v-16h-3.6v2.1L131.3,35.5z M126.9,47.9c-2.6,0-4.6-2.3-4.6-5.4s2.1-5.4,4.6-5.4c2.5,0,4.6,2.3,4.6,5.4S129.5,47.9,126.9,47.9z
		 M108.1,33.7c-4.9,0-8.7,3.6-8.7,8.7s3.9,8.7,8.7,8.7s8.7-3.9,8.7-8.7C117.1,37.3,113,33.7,108.1,33.7z M108.1,47.9
		c-2.6,0-4.9-2.3-4.9-5.4c0-3.1,2.3-5.4,4.9-5.4s4.9,2.1,4.9,5.4C113,45.8,110.7,47.9,108.1,47.9z M138,24.5h3.9v26.8H138V24.5z
		 M152.4,47.9c-2.1,0-3.3-1-4.4-2.6l11.8-4.9l-0.5-1c-0.8-2.1-3.1-5.7-7.5-5.7c-4.6,0-8.2,3.6-8.2,8.7c0,4.9,3.9,8.7,8.7,8.7
		c4.1,0,6.4-2.6,7.5-3.9l-3.1-2.1C155.7,46.9,154.4,47.9,152.4,47.9L152.4,47.9z M152.1,37.1c1.5,0,2.8,0.8,3.3,2.1l-8,3.3
		C147.5,38.6,150.1,37.1,152.1,37.1L152.1,37.1z"/>
</g>
<g>
	<path fill-rule="evenodd" clip-rule="evenodd" fill="#FFC517" d="M18.1,57.9H3.3c-1.8,0-3.3-1.5-3.3-3.3l0,0v-7.1
		c0-1.8,1.5-3.3,3.3-3.3l0,0h9.4V33.8c0-1.8,1.5-3.3,3.3-3.3l0,0h10.4v27.3L18.1,57.9L18.1,57.9z"/>
	<path fill-rule="evenodd" clip-rule="evenodd" fill="#F57E02" d="M36.7,57.9H26.3V21.2c0-1.8,1.5-3.3,3.3-3.3l0,0h7.1
		c1.8,0,3.3,1.5,3.3,3.3l0,0v33.4C39.9,56.4,38.4,57.9,36.7,57.9L36.7,57.9z"/>
	
		<linearGradient id="SVGID_1_" gradientUnits="userSpaceOnUse" x1="-455.4799" y1="107.0757" x2="-412.5979" y2="107.0757" gradientTransform="matrix(0.3182 0 0 0.3182 171.2229 10.1285)">
		<stop  offset="0" style="stop-color:#E96F0B"/>
		<stop  offset="1" style="stop-color:#F37901"/>
	</linearGradient>
	<path fill-rule="evenodd" clip-rule="evenodd" fill="url(#SVGID_1_)" d="M39.9,44.2v10.4c0,1.8-1.5,3.3-3.3,3.3H26.2V30.5
		L39.9,44.2z"/>
</g>
<g enable-background="new    ">
	<path fill="#757575" d="M60.8,10.1c-0.1,1.2-0.6,2.1-1.3,2.8c-0.7,0.7-1.7,1-3,1c-1.3,0-2.4-0.5-3.2-1.4c-0.8-1-1.2-2.3-1.2-3.9
		V7.4c0-1.1,0.2-2,0.6-2.8c0.4-0.8,0.9-1.4,1.6-1.8c0.7-0.4,1.5-0.6,2.4-0.6c1.2,0,2.2,0.3,2.9,1c0.7,0.7,1.2,1.6,1.3,2.8h-1.5
		c-0.1-0.9-0.4-1.6-0.8-2c-0.4-0.4-1-0.6-1.8-0.6c-1,0-1.7,0.4-2.3,1.1c-0.5,0.7-0.8,1.7-0.8,3v1.1c0,1.2,0.3,2.2,0.8,2.9
		s1.2,1.1,2.2,1.1c0.8,0,1.5-0.2,1.9-0.6s0.7-1,0.9-2H60.8z"/>
	<path fill="#757575" d="M62.3,9.4c0-0.8,0.2-1.6,0.5-2.2c0.3-0.7,0.8-1.2,1.4-1.5c0.6-0.4,1.2-0.5,2-0.5c1.2,0,2.1,0.4,2.8,1.2
		s1.1,1.9,1.1,3.2v0.1c0,0.8-0.2,1.6-0.5,2.2c-0.3,0.7-0.8,1.2-1.4,1.5s-1.3,0.5-2,0.5c-1.1,0-2.1-0.4-2.8-1.2s-1.1-1.9-1.1-3.2V9.4
		z M63.7,9.6c0,0.9,0.2,1.7,0.7,2.3c0.4,0.6,1,0.9,1.7,0.9c0.7,0,1.3-0.3,1.8-0.9c0.4-0.6,0.6-1.4,0.6-2.4c0-0.9-0.2-1.7-0.7-2.3
		c-0.4-0.6-1-0.9-1.8-0.9c-0.7,0-1.3,0.3-1.7,0.9S63.7,8.5,63.7,9.6z"/>
	<path fill="#757575" d="M73.1,5.2l0,0.9c0.6-0.7,1.5-1.1,2.5-1.1c1.2,0,2,0.5,2.4,1.4c0.3-0.4,0.6-0.7,1.1-1s1-0.4,1.6-0.4
		c1.9,0,2.8,1,2.8,2.9v5.7h-1.4V8.1c0-0.6-0.1-1.1-0.4-1.4S81,6.3,80.4,6.3c-0.5,0-1,0.2-1.3,0.5s-0.6,0.8-0.6,1.3v5.6h-1.5V8.1
		c0-1.2-0.6-1.8-1.8-1.8c-0.9,0-1.6,0.4-1.9,1.2v6.2h-1.4V5.2H73.1z"/>
	<path fill="#757575" d="M92.9,9.6c0,1.3-0.3,2.3-0.9,3.1s-1.4,1.2-2.4,1.2c-1,0-1.8-0.3-2.4-1v4.1h-1.4V5.2h1.3l0.1,0.9
		c0.6-0.7,1.4-1.1,2.5-1.1c1,0,1.8,0.4,2.4,1.1s0.9,1.8,0.9,3.2V9.6z M91.5,9.4c0-1-0.2-1.7-0.6-2.3s-1-0.8-1.7-0.8
		c-0.9,0-1.5,0.4-2,1.2v4c0.4,0.8,1.1,1.2,2,1.2c0.7,0,1.2-0.3,1.7-0.8S91.5,10.5,91.5,9.4z"/>
	<path fill="#757575" d="M100,13.7c-0.1-0.2-0.2-0.5-0.2-0.9c-0.7,0.7-1.5,1-2.4,1c-0.8,0-1.5-0.2-2.1-0.7s-0.8-1.1-0.8-1.8
		c0-0.9,0.3-1.6,1-2.1s1.6-0.7,2.8-0.7h1.4V7.9c0-0.5-0.2-0.9-0.5-1.2S98.6,6.2,98,6.2c-0.5,0-0.9,0.1-1.3,0.4s-0.5,0.6-0.5,0.9
		h-1.5c0-0.4,0.1-0.8,0.4-1.2s0.7-0.7,1.2-0.9s1.1-0.3,1.7-0.3c1,0,1.7,0.2,2.3,0.7s0.8,1.2,0.9,2v3.9c0,0.8,0.1,1.4,0.3,1.9v0.1
		H100z M97.6,12.6c0.5,0,0.9-0.1,1.3-0.4s0.7-0.5,0.9-0.9V9.6h-1.1c-1.8,0-2.7,0.5-2.7,1.6c0,0.5,0.2,0.8,0.5,1.1
		S97.1,12.6,97.6,12.6z"/>
	<path fill="#757575" d="M105.4,3.2v2h1.6v1.1h-1.6v5.2c0,0.3,0.1,0.6,0.2,0.8c0.1,0.2,0.4,0.3,0.7,0.3c0.2,0,0.4,0,0.7-0.1v1.2
		c-0.4,0.1-0.8,0.2-1.1,0.2c-0.6,0-1.1-0.2-1.5-0.6s-0.5-0.9-0.5-1.7V6.4h-1.5V5.2h1.5v-2H105.4z"/>
	<path fill="#757575" d="M108.7,3c0-0.2,0.1-0.4,0.2-0.6s0.4-0.2,0.6-0.2s0.5,0.1,0.6,0.2s0.2,0.4,0.2,0.6s-0.1,0.4-0.2,0.6
		s-0.4,0.2-0.6,0.2s-0.5-0.1-0.6-0.2S108.7,3.2,108.7,3z M110.3,13.7h-1.4V5.2h1.4V13.7z"/>
	<path fill="#757575" d="M119.7,9.6c0,1.3-0.3,2.3-0.9,3.1s-1.4,1.2-2.4,1.2c-1.1,0-1.9-0.4-2.5-1.1l-0.1,1h-1.3v-12h1.4v4.5
		c0.6-0.7,1.4-1.1,2.4-1.1s1.8,0.4,2.4,1.2s0.9,1.8,0.9,3.2V9.6z M118.3,9.4c0-1-0.2-1.7-0.6-2.3s-0.9-0.8-1.6-0.8
		c-1,0-1.6,0.4-2.1,1.3v3.7c0.4,0.9,1.1,1.3,2.1,1.3c0.7,0,1.2-0.3,1.6-0.8S118.3,10.5,118.3,9.4z"/>
	<path fill="#757575" d="M123.1,13.7h-1.4v-12h1.4V13.7z"/>
	<path fill="#757575" d="M128.9,13.8c-1.1,0-2.1-0.4-2.8-1.1s-1.1-1.8-1.1-3V9.4c0-0.8,0.2-1.6,0.5-2.2s0.8-1.2,1.3-1.5
		s1.2-0.6,1.9-0.6c1.1,0,2,0.4,2.6,1.1s0.9,1.8,0.9,3.1v0.6h-5.7c0,0.8,0.3,1.5,0.7,2s1.1,0.8,1.8,0.8c0.5,0,0.9-0.1,1.3-0.3
		s0.7-0.5,0.9-0.8l0.9,0.7C131.4,13.3,130.4,13.8,128.9,13.8z M128.8,6.3c-0.6,0-1.1,0.2-1.5,0.6s-0.6,1-0.7,1.8h4.2V8.6
		c0-0.7-0.2-1.3-0.6-1.7S129.4,6.3,128.8,6.3z"/>
	<path fill="#757575" d="M145.4,11.7l1.6-6.5h1.4l-2.5,8.5h-1.2l-2.1-6.4l-2,6.4h-1.2l-2.5-8.5h1.4l1.7,6.3l2-6.3h1.2L145.4,11.7z"
		/>
	<path fill="#757575" d="M149.9,3c0-0.2,0.1-0.4,0.2-0.6s0.4-0.2,0.6-0.2s0.5,0.1,0.6,0.2s0.2,0.4,0.2,0.6s-0.1,0.4-0.2,0.6
		s-0.4,0.2-0.6,0.2s-0.5-0.1-0.6-0.2S149.9,3.2,149.9,3z M151.5,13.7H150V5.2h1.4V13.7z"/>
	<path fill="#757575" d="M155.7,3.2v2h1.6v1.1h-1.6v5.2c0,0.3,0.1,0.6,0.2,0.8c0.1,0.2,0.4,0.3,0.7,0.3c0.2,0,0.4,0,0.7-0.1v1.2
		c-0.4,0.1-0.8,0.2-1.1,0.2c-0.6,0-1.1-0.2-1.5-0.6s-0.5-0.9-0.5-1.7V6.4h-1.5V5.2h1.5v-2H155.7z"/>
	<path fill="#757575" d="M160.4,6.3c0.6-0.8,1.5-1.2,2.5-1.2c1.8,0,2.7,1,2.7,3v5.6h-1.4V8.1c0-0.6-0.1-1.1-0.4-1.4
		s-0.7-0.4-1.3-0.4c-0.5,0-0.9,0.1-1.2,0.4s-0.6,0.6-0.8,1v6H159v-12h1.4V6.3z"/>
</g>
</svg>
