<svg xmlns="http://www.w3.org/2000/svg" width="4" height="16" viewBox="0 0 4 16"><g><g><path fill="#4d84e8" d="M2 0c1.105 0 2 .776 2 1.734S3.105 3.47 2 3.47s-2-.777-2-1.735C0 .776.895 0 2 0zm0 6.25c1.105 0 2 .783 2 1.75 0 .966-.895 1.75-2 1.75S0 8.966 0 8c0-.967.895-1.75 2-1.75zm0 6.281c1.105 0 2 .777 2 1.735C4 15.223 3.105 16 2 16s-2-.777-2-1.734c0-.958.895-1.735 2-1.735z"/><path fill="#2b2c33" d="M2 0c1.105 0 2 .776 2 1.734S3.105 3.47 2 3.47s-2-.777-2-1.735C0 .776.895 0 2 0zm0 6.25c1.105 0 2 .783 2 1.75 0 .966-.895 1.75-2 1.75S0 8.966 0 8c0-.967.895-1.75 2-1.75zm0 6.281c1.105 0 2 .777 2 1.735C4 15.223 3.105 16 2 16s-2-.777-2-1.734c0-.958.895-1.735 2-1.735z"/></g></g></svg>